#!OML:ASF F:\twosubjects\two\wednesday\Session 1\rory1.ASF
:FULLY-SPECIFIED
:DEGREES
41
root 8.83081 18.8593 9.58422 -174.665 2.35856 179.051
lowerback -1.68177 0.794557 -2.68202
upperback -1.08735 1.14007 -1.08572
thorax -0.200898 0.599164 0.407085
lowerneck -12.2023 -2.73289 -2.92741
upperneck 16.0889 -3.93535 2.57226
head 7.04058 -1.96347 0.91907
rclavicle 5.50385e-015 -7.55382e-015
rhumerus -5.62846 -16.3143 -34.075
rradius 95.0139
rwrist -3.98982
rhand -21.7477 40.9935
rfingers 7.12502
rthumb 4.65238 11.0646
lclavicle 5.50385e-015 -7.55382e-015
lhumerus 3.07588 14.3174 38.325
lradius 101.046
lwrist 4.19816
lhand -24.2516 23.9447
lfingers 7.12502
lthumb 2.23435 53.9128
rfemur -2.25601 13.2893 14.4647
rtibia 11.2988
rfoot -7.58288 -15.1692
rtoes 4.67667
lfemur -1.92072 -8.01133 -16.8061
ltibia 10.3977
lfoot -12.7647 11.4386
ltoes -13.3708
42
root 8.83101 18.8603 9.57912 -174.687 2.28728 179.23
lowerback -1.72039 0.76172 -2.57504
upperback -1.08756 1.09209 -0.958071
thorax -0.178705 0.57307 0.477923
lowerneck -12.1365 -2.71158 -3.03489
upperneck 16.1355 -3.88224 2.51184
head 7.0435 -1.95216 0.922874
rclavicle -9.36773e-015 8.34896e-015
rhumerus -5.11434 -16.9211 -33.8849
rradius 96.4427
rwrist -3.79077
rhand -21.5881 41.3994
rfingers 7.12502
rthumb 4.80649 11.4739
lclavicle -9.36773e-015 8.34896e-015
lhumerus 3.44303 14.9682 38.1792
lradius 102.318
lwrist 3.58003
lhand -24.8569 24.0296
lfingers 7.12502
lthumb 1.64978 54.003
rfemur -2.13237 13.2823 14.6894
rtibia 11.1796
rfoot -7.60053 -15.2393
rtoes 5.61108
lfemur -1.71265 -8.04512 -16.5943
ltibia 10.0645
lfoot -12.6234 11.4468
ltoes -13.3848
43
root 8.82738 18.8595 9.57387 -174.687 2.10571 179.524
lowerback -1.78158 0.735775 -2.24107
upperback -1.05664 1.05063 -0.86495
thorax -0.107293 0.548157 0.38715
lowerneck -12.1613 -2.75395 -3.09993
upperneck 16.1906 -3.93787 2.54801
head 7.06936 -1.98029 0.939007
rclavicle -1.69215e-014 6.75868e-015
rhumerus -4.77433 -17.5188 -33.6994
rradius 98.0445
rwrist -3.36041
rhand -21.7938 40.5885
rfingers 7.12502
rthumb 4.60789 10.6586
lclavicle -1.69215e-014 6.75868e-015
lhumerus 4.03161 15.5926 38.1591
lradius 103.497
lwrist 2.96804
lhand -25.1504 24.0906
lfingers 7.12502
lthumb 1.3663 54.066
rfemur -2.02146 13.3568 15.0543
rtibia 11.1095
rfoot -7.52181 -15.4186
rtoes 5.70413
lfemur -1.55037 -8.10956 -16.2713
ltibia 9.77068
lfoot -12.2999 11.5345
ltoes -14.572
44
root 8.82383 18.8563 9.57048 -174.655 1.96707 179.526
lowerback -1.80249 0.754544 -2.13678
upperback -1.13527 1.07707 -0.944912
thorax -0.173176 0.563326 0.246934
lowerneck -11.9336 -2.81061 -3.0885
upperneck 16.1559 -4.06079 2.70039
head 7.02484 -2.03137 0.977176
rclavicle -1.31322e-014 8.74653e-015
rhumerus -4.70276 -17.9922 -33.4324
rradius 99.54
rwrist -3.31986
rhand -22.4528 40.2384
rfingers 7.12502
rthumb 3.97151 10.2957
lclavicle -1.31322e-014 8.74653e-015
lhumerus 4.59259 15.877 37.9994
lradius 104.714
lwrist 2.58096
lhand -25.2989 24.2651
lfingers 7.12502
lthumb 1.22293 54.2414
rfemur -1.96742 13.3362 15.0702
rtibia 11.043
rfoot -7.32837 -15.4789
rtoes 5.62399
lfemur -1.42896 -8.15702 -16.2871
ltibia 9.50776
lfoot -12.1664 11.513
ltoes -14.1931
45
root 8.82755 18.8557 9.56758 -174.638 2.09726 179.435
lowerback -1.72622 0.841128 -2.28064
upperback -1.24585 1.19476 -1.00238
thorax -0.333239 0.626911 0.267712
lowerneck -11.848 -2.87378 -3.10932
upperneck 16.2343 -4.17989 2.81371
head 7.04174 -2.08488 1.00586
rclavicle -7.86442e-015 -4.77083e-015
rhumerus -4.57862 -18.3824 -33.1022
rradius 100.86
rwrist -3.18063
rhand -22.8177 40.7335
rfingers 7.12502
rthumb 3.61913 10.7845
lclavicle -7.86442e-015 -4.77083e-015
lhumerus 4.98006 16.122 37.7743
lradius 105.979
lwrist 2.0953
lhand -24.9592 24.4697
lfingers 7.12502
lthumb 1.551 54.4438
rfemur -2.0245 13.3606 14.9662
rtibia 11.0959
rfoot -7.28292 -15.4581
rtoes 4.92869
lfemur -1.20188 -7.94624 -16.4032
ltibia 9.13162
lfoot -12.1298 11.3593
ltoes -12.4506
46
root 8.83146 18.8507 9.56523 -174.752 2.29806 179.466
lowerback -1.54962 0.881878 -2.34735
upperback -1.25374 1.2423 -0.962236
thorax -0.443622 0.651554 0.343326
lowerneck -12.1025 -2.86892 -3.23733
upperneck 16.5526 -4.17988 2.90545
head 7.19435 -2.08571 1.05088
rclavicle -5.90142e-015 3.97569e-016
rhumerus -4.15919 -18.6829 -33.0414
rradius 102.169
rwrist -2.73713
rhand -23.0563 41.1696
rfingers 7.12502
rthumb 3.38875 11.2168
lclavicle -5.90142e-015 3.97569e-016
lhumerus 5.17976 16.5898 37.5182
lradius 107.197
lwrist 1.35412
lhand -23.9189 24.4647
lfingers 7.12502
lthumb 2.55566 54.4291
rfemur -1.97371 13.4153 15.0181
rtibia 11.2013
rfoot -7.38876 -15.3835
rtoes 4.15603
lfemur -0.764566 -7.66206 -16.413
ltibia 8.64109
lfoot -11.8742 11.3583
ltoes -12.9537
47
root 8.83057 18.8455 9.56207 -174.906 2.41413 179.401
lowerback -1.42412 0.885702 -2.45097
upperback -1.22014 1.24358 -0.95275
thorax -0.48203 0.652446 0.409049
lowerneck -12.185 -2.83051 -3.3165
upperneck 16.7384 -4.13471 2.95581
head 7.2705 -2.06718 1.08237
rclavicle -6.21202e-016 7.15625e-015
rhumerus -3.69122 -18.9503 -33.1383
rradius 103.538
rwrist -2.55133
rhand -22.607 41.1641
rfingers 7.12502
rthumb 3.8226 11.2186
lclavicle -6.21202e-016 7.15625e-015
lhumerus 5.47334 17.009 37.2758
lradius 108.21
lwrist 0.649563
lhand -23.2361 24.3217
lfingers 7.12502
lthumb 3.21506 54.2772
rfemur -1.80545 13.5157 14.9628
rtibia 11.2076
rfoot -7.39109 -15.3213
rtoes 4.10157
lfemur -0.322289 -7.47352 -16.538
ltibia 8.18507
lfoot -11.6329 11.3903
ltoes -13.5544
48
root 8.82447 18.8487 9.55782 -174.906 2.33662 179.413
lowerback -1.4719 0.887688 -2.36095
upperback -1.24575 1.24725 -0.965136
thorax -0.479334 0.654145 0.346664
lowerneck -11.8844 -2.84221 -3.29383
upperneck 16.5846 -4.15992 2.94259
head 7.16758 -2.08378 1.0766
rclavicle 3.49116e-015 -2.78299e-015
rhumerus -3.56433 -19.277 -32.9782
rradius 104.969
rwrist -2.50324
rhand -21.7542 40.7063
rfingers 7.12502
rthumb 4.64615 10.7772
lclavicle 3.49116e-015 -2.78299e-015
lhumerus 5.88151 17.1859 37.1159
lradius 109.154
lwrist 0.12732
lhand -22.9304 24.0621
lfingers 7.12502
lthumb 3.51027 54.0129
rfemur -1.72469 13.6601 14.9697
rtibia 11.1158
rfoot -7.29456 -15.4544
rtoes 5.23873
lfemur -0.158714 -7.46082 -16.5305
ltibia 7.86972
lfoot -11.5778 11.3175
ltoes -12.8493
49
root 8.81913 18.8526 9.55353 -174.895 2.16155 179.536
lowerback -1.51768 0.880366 -2.14215
upperback -1.23909 1.23586 -0.969551
thorax -0.441759 0.646177 0.220656
lowerneck -11.8167 -2.87527 -3.27655
upperneck 16.5548 -4.22494 3.01366
head 7.14934 -2.10921 1.09133
rclavicle -1.2424e-014 0
rhumerus -3.51359 -19.6451 -32.7721
rradius 106.325
rwrist -2.37201
rhand -21.015 40.331
rfingers 7.12502
rthumb 5.35986 10.4188
lclavicle -1.2424e-014 0
lhumerus 6.30647 17.2917 36.935
lradius 110.096
lwrist -0.227798
lhand -23.1369 24.1117
lfingers 7.12502
lthumb 3.31088 54.0658
rfemur -1.55773 13.7087 15.107
rtibia 10.8886
rfoot -7.34931 -15.6043
rtoes 6.77912
lfemur -0.1275 -7.53463 -16.3953
ltibia 7.78721
lfoot -11.609 11.1623
ltoes -13.7573
